<?xml version="1.0" standalone="no"?>
<!DOCTYPE svg PUBLIC "-//W3C//DTD SVG 20010904//EN"
 "http://www.w3.org/TR/2001/REC-SVG-20010904/DTD/svg10.dtd">
<svg version="1.0" xmlns="http://www.w3.org/2000/svg"
 width="700.000000pt" height="700.000000pt" viewBox="0 0 700.000000 700.000000"
 preserveAspectRatio="xMidYMid meet">
<metadata>
Created by potrace 1.11, written by Peter Selinger 2001-2013
</metadata>
<g transform="translate(0.000000,700.000000) scale(0.100000,-0.100000)"
fill="#000000" stroke="none">
<path d="M2265 6885 c-22 -8 -42 -15 -45 -15 -11 0 -2062 -2057 -2080 -2086
-11 -17 -22 -55 -26 -86 -11 -96 28 -175 113 -225 60 -35 149 -38 208 -7 56
29 2086 2059 2110 2110 38 81 16 194 -52 260 -58 54 -156 76 -228 49z"/>
<path d="M3740 6879 c-34 -15 -279 -255 -1066 -1042 -1127 -1128 -1063 -1057
-1051 -1174 11 -107 96 -190 205 -200 116 -11 61 -60 1179 1060 776 777 1017
1023 1032 1057 85 188 -111 384 -299 299z"/>
<path d="M5685 5867 c-40 -20 -523 -498 -2446 -2423 -1641 -1643 -2401 -2411
-2413 -2437 -19 -42 -20 -135 -2 -177 22 -50 61 -91 113 -117 45 -22 63 -25
112 -20 32 2 73 13 91 22 43 22 4823 4803 4847 4847 23 44 24 161 1 203 -40
75 -104 116 -193 122 -49 3 -69 0 -110 -20z"/>
<path d="M3455 5043 c-47 -14 -107 -71 -1082 -1046 -568 -568 -1040 -1047
-1049 -1065 -53 -111 -6 -250 102 -303 63 -30 145 -31 202 -1 62 32 2078 2051
2103 2105 39 87 14 205 -55 264 -64 54 -138 70 -221 46z"/>
<path d="M6577 3996 c-21 -8 -48 -22 -60 -33 -12 -10 -481 -477 -1043 -1038
-891 -891 -1023 -1027 -1036 -1065 -61 -186 106 -353 292 -292 40 13 167 137
1063 1031 560 559 1033 1036 1050 1061 29 41 32 52 32 120 0 78 -18 124 -68
170 -54 51 -159 72 -230 46z"/>
<path d="M4822 3685 c-37 -18 -277 -253 -1078 -1056 -1112 -1114 -1060 -1057
-1056 -1161 2 -64 22 -109 71 -156 65 -63 178 -80 259 -38 46 24 2080 2064
2104 2110 26 51 27 139 3 187 -30 59 -86 109 -140 124 -67 19 -106 16 -163
-10z"/>
<path d="M6564 2535 c-38 -19 -282 -258 -1070 -1047 -675 -676 -1028 -1037
-1041 -1063 -28 -56 -29 -133 -4 -187 26 -55 46 -78 96 -108 51 -32 160 -35
215 -6 46 24 2082 2061 2104 2105 10 18 20 57 23 86 18 173 -166 299 -323 220z"/>
</g>
</svg>
