<?xml version="1.0" standalone="no"?>
<!DOCTYPE svg PUBLIC "-//W3C//DTD SVG 20010904//EN"
 "http://www.w3.org/TR/2001/REC-SVG-20010904/DTD/svg10.dtd">
<svg version="1.0" xmlns="http://www.w3.org/2000/svg"
 width="1920.000000pt" height="1920.000000pt" viewBox="0 0 1920.000000 1920.000000"
 preserveAspectRatio="xMidYMid meet">
<metadata>
Created by potrace 1.11, written by Peter Selinger 2001-2013
</metadata>
<g transform="translate(0.000000,1920.000000) scale(0.100000,-0.100000)"
fill="#000000" stroke="none">
<path d="M0 9600 l0 -9600 9600 0 9600 0 0 9600 0 9600 -9600 0 -9600 0 0
-9600z m10529 8425 c147 -35 285 -141 354 -273 88 -167 88 -344 0 -516 -34
-67 -185 -220 -2542 -2577 -2357 -2357 -2510 -2508 -2577 -2542 -222 -114
-471 -77 -642 95 -172 171 -209 420 -95 642 34 67 185 220 2542 2577 2362
2362 2510 2508 2577 2542 126 65 254 82 383 52z m-3720 -20 c147 -35 285 -141
354 -273 88 -167 88 -344 0 -516 -34 -67 -186 -220 -2542 -2577 -2357 -2356
-2510 -2508 -2577 -2542 -222 -114 -471 -77 -644 96 -166 166 -204 410 -99
627 l41 85 2507 2506 c2362 2362 2510 2508 2577 2542 126 65 254 82 383 52z
m8550 -2490 c147 -35 285 -141 354 -273 87 -166 88 -345 1 -515 -35 -69 -319
-354 -5983 -6018 -5664 -5664 -5949 -5948 -6018 -5983 -220 -112 -471 -75
-641 96 -172 171 -209 420 -95 642 34 67 360 395 5982 6017 5635 5635 5950
5948 6017 5982 126 65 255 82 383 52z m-5640 -2120 c146 -35 285 -142 354
-273 88 -167 88 -344 0 -516 -34 -67 -186 -220 -2542 -2577 -2357 -2356 -2510
-2508 -2577 -2542 -220 -113 -473 -76 -643 94 -170 170 -207 422 -94 643 34
67 185 220 2542 2577 2362 2362 2510 2508 2577 2542 126 65 254 82 383 52z
m7750 -2600 c147 -35 285 -141 354 -273 87 -166 88 -345 1 -515 -35 -68 -168
-203 -2543 -2578 l-2506 -2507 -85 -41 c-164 -79 -327 -80 -486 -2 -277 137
-381 464 -237 745 34 67 185 220 2542 2577 2362 2362 2510 2508 2577 2542 126
65 254 82 383 52z m-4270 -700 c147 -35 285 -141 354 -273 88 -167 88 -344 0
-516 -34 -67 -186 -221 -2542 -2577 l-2506 -2507 -85 -41 c-164 -79 -327 -80
-486 -2 -277 137 -381 464 -237 745 34 67 185 220 2542 2577 2362 2362 2510
2508 2577 2542 126 65 254 82 383 52z m4270 -2900 c195 -46 360 -211 406 -406
30 -129 13 -257 -52 -383 -34 -67 -186 -220 -2542 -2577 -2357 -2356 -2510
-2508 -2577 -2542 -221 -113 -473 -76 -643 94 -170 170 -207 422 -94 643 34
67 185 220 2542 2577 2362 2362 2510 2508 2577 2542 126 65 254 82 383 52z"/>
</g>
</svg>
