<svg xmlns="http://www.w3.org/2000/svg" viewBox="0 0 600 600">
  <path d="M0 300c0 165.71 134.31 300 300 300 165.68 0 300-134.29 300-300C600 134.32 465.67 0 300 0 134.31 0 0 134.32 0 300zM372.8 93.08c2.43 22.12-6.49 44.31-19.65 60.27-13.21 15.95-34.81 28.36-56.02 26.72-2.85-21.67 7.84-44.28 20.07-58.41 13.61-15.97 36.62-27.81 55.6-28.58zm-5.37 377.1c-25.29.48-33.43-14.98-62.32-14.98-28.91 0-37.95 14.53-61.88 15.47-24.82.93-43.73-24.81-59.6-47.75-32.47-46.88-57.24-132.49-23.93-190.29 16.5-28.72 46.05-46.85 78.1-47.35 24.42-.45 47.43 16.45 62.32 16.45 14.92 0 42.89-20.3 72.32-17.3 12.3.5 46.85 4.94 69.05 37.41-1.78 1.12-41.27 24.08-40.79 71.9.52 57.13 50.11 76.1 50.68 76.39-.46 1.29-7.96 27.06-26.16 53.65-15.75 23.01-32.07 45.94-57.79 46.4z" id="a"/>
</svg>
