<svg xmlns="http://www.w3.org/2000/svg" viewBox="0 0 600 600">
	<path d="M297.56 248.77c-29.63 0-53.66 24.03-53.66 53.66 0 29.63 24.03 53.66 53.66 53.66 29.63 0 53.66-24.03 53.66-53.66 0-29.63-24.03-53.66-53.66-53.66z" id="a"/>
	<path d="M230.49 170.73c-19.51 0-36.59 6.09-47.56 17.07-10.98 10.97-17.08 28.05-17.08 47.56V369.5c0 19.51 6.1 36.59 18.3 48.78 12.19 10.98 28.05 17.08 47.56 17.08h132.92c19.51 0 36.59-6.1 47.56-17.08 12.2-10.97 18.3-28.05 18.3-47.56V236.58c0-19.51-6.1-35.37-17.08-47.56-12.19-12.2-28.05-18.29-48.78-18.29H230.49zm-15.86 131.7c0-46.34 37.81-82.93 82.93-82.93 45.12 0 84.15 36.59 84.15 82.93s-37.81 82.93-84.15 82.93-82.93-37.81-82.93-82.93zm150-86.58c0-10.98 8.54-19.52 19.51-19.52 10.98 0 19.52 8.54 19.52 19.52 0 10.97-8.54 19.51-19.52 19.51-10.97 0-19.51-8.54-19.51-19.51z" id="b"/>
	<path d="M0 299.99c0 165.85 134.15 300 300 300s300-134.15 300-300C601.21 134.14 465.85 0 300 0S0 134.14 0 299.99zm432.92 140.24c-17.07 17.08-41.46 25.61-68.29 25.61H231.71c-26.83 0-51.22-8.53-68.29-25.61-18.3-17.07-26.83-41.46-26.83-69.51V236.58c0-56.1 37.8-95.12 95.12-95.12h134.14c28.05 0 51.22 9.75 68.29 26.83 17.08 17.07 25.61 40.24 25.61 68.29v134.14c-6.5 34.96-15.44 58.13-26.83 69.51z" id="c"/>
</svg>
