<svg xmlns="http://www.w3.org/2000/svg" viewBox="0 0 56.693 56.693">
  <path d="M28.348 5.158c-13.6 0-24.625 11.023-24.625 24.623 0 13.6 11.025 24.625 24.625 24.625 13.598 0 24.623-11.025 24.623-24.625S41.945 5.158 28.348 5.158zM11.847 33.124c-.011.078-.068.133-.138.133-.072 0-.128-.055-.138-.133l-.252-1.885.252-1.916c.01-.08.066-.137.138-.137.07 0 .127.057.138.137l.299 1.916-.299 1.885zm1.281 1.147c-.012.082-.071.139-.144.139s-.133-.059-.144-.141l-.339-3.029.339-3.1c.01-.08.071-.139.144-.139s.132.057.144.139l.385 3.1-.385 3.031zm1.385.513c-.01.096-.083.168-.173.168-.091 0-.164-.072-.173-.17l-.322-3.543.322-3.676c.009-.1.082-.172.173-.172.089 0 .163.072.173.172l.366 3.676-.366 3.545zm1.396.11c-.01.115-.097.199-.202.199a.206.206 0 01-.203-.199l-.304-3.653.305-3.777c.008-.115.095-.201.203-.201.105 0 .191.086.202.199l.345 3.779-.346 3.653zm1.407.031c-.009.131-.108.229-.231.229a.234.234 0 01-.232-.229l-.287-3.684.287-3.504c.008-.131.107-.23.232-.23.123 0 .223.098.231.227l.326 3.508-.326 3.683zm1.419.002v-.002a.268.268 0 01-.261.26.266.266 0 01-.261-.258l-.27-3.686.27-5.701a.266.266 0 01.261-.258c.138 0 .253.113.261.258l.306 5.701-.306 3.686zm1.429-.022v-.002c-.008.162-.135.287-.291.287s-.284-.125-.291-.285l-.252-3.662.252-7.006c.007-.162.135-.287.291-.287s.283.125.291.287l.285 7.006-.285 3.662zm1.441-.037v-.002a.324.324 0 01-.32.316.322.322 0 01-.32-.314l-.235-3.625.235-7.59a.323.323 0 01.32-.318c.172 0 .312.141.32.318l.265 7.59-.265 3.625zm1.452-.025v.004-.002c-.008.195-.16.346-.35.346s-.344-.152-.35-.344l-.217-3.604.217-7.846a.351.351 0 01.35-.346c.19 0 .344.15.35.346l.245 7.846-.245 3.602v-.002zm1.463-.031v-.002a.383.383 0 01-.379.379.38.38 0 01-.379-.377l-.2-3.568.2-7.645a.38.38 0 01.379-.377.38.38 0 01.379.377l.225 7.645-.225 3.568zm1.474-.022v-.004a.412.412 0 01-.408.408.41.41 0 01-.409-.404l-.183-3.545.183-7.367a.409.409 0 01.817-.002l.204 7.369-.204 3.545zm1.485-.023v-.002a.445.445 0 01-.438.438.443.443 0 01-.438-.436l-.166-3.523.166-8.764a.442.442 0 01.438-.436c.236 0 .434.196.438.436l.185 8.766-.185 3.521zm1.478-.049v-.004c-.004.256-.213.465-.467.465s-.465-.209-.468-.463l-.191-3.471.191-9.559c.003-.257.214-.467.468-.467s.463.21.467.466l.209 9.56-.209 3.473zm12.624.492c-.075 0-11.754-.004-11.765-.006a.514.514 0 01-.459-.502v-13.47c.004-.248.088-.375.409-.5a7.603 7.603 0 012.716-.508c3.912 0 7.119 3.001 7.457 6.826a4.254 4.254 0 011.642-.328 4.244 4.244 0 110 8.488z"/>
</svg>
