<svg viewBox="0 0 512 512" xmlns="http://www.w3.org/2000/svg">
  <path d="M437.02 74.98C388.668 26.63 324.379 0 256 0S123.332 26.629 74.98 74.98C26.63 123.332 0 187.617 0 256c0 68.379 26.629 132.668 74.98 181.02C123.332 485.37 187.621 512 256 512s132.668-26.629 181.02-74.98C485.37 388.668 512 324.379 512 256c0-68.383-26.629-132.668-74.98-181.02zm-62.73 286.508c-2.509 5.543-7.966 8.825-13.68 8.825-2.067 0-4.165-.426-6.169-1.336-45.941-20.766-95.011-31.293-145.851-31.293-27.067 0-54.031 3.058-80.149 9.093-8.07 1.868-16.129-3.168-17.992-11.242-1.863-8.07 3.168-16.125 11.238-17.988 28.329-6.543 57.567-9.863 86.903-9.863 55.129 0 108.355 11.425 158.207 33.957 7.55 3.414 10.902 12.3 7.492 19.847zm31.663-71.797c-2.504 5.555-7.969 8.844-13.687 8.844-2.063 0-4.153-.426-6.149-1.324-55.941-25.184-115.672-37.95-177.527-37.95-31.653 0-63.23 3.43-93.852 10.2-8.09 1.789-16.097-3.32-17.883-11.41-1.789-8.09 3.32-16.098 11.41-17.887 32.743-7.234 66.497-10.902 100.325-10.902 66.129 0 130.004 13.656 189.84 40.593 7.554 3.403 10.922 12.282 7.523 19.836zm30.66-69.546c-2.496 5.562-7.965 8.859-13.691 8.859-2.055 0-4.14-.422-6.137-1.316-65.62-29.458-135.664-44.395-208.191-44.395-36.074 0-72.086 3.793-107.043 11.27-8.102 1.742-16.074-3.426-17.809-11.528-1.73-8.101 3.43-16.074 11.531-17.808 37.016-7.918 75.141-11.934 113.32-11.934 76.79 0 150.97 15.82 220.477 47.023 7.559 3.395 10.938 12.27 7.543 19.829zm0 0"/>
</svg>
