<svg viewBox="0 0 512 512" xmlns="http://www.w3.org/2000/svg">
  <path d="M 256 512 C 114.61134 512 0 397.38866 0 256 C 0 114.611347 114.61134 0 256 0 C 397.388653 0 512 114.611347 512 256 C 512 397.38866 397.388653 512 256 512 Z M 222.261719 394.03125 C 271.360318 394.03125 311.304688 354.993284 311.304688 307.009766 L 311.304688 210.931641 C 330.277905 224.24132 353.522211 232.083984 378.607422 232.083984 L 378.607422 195.339844 C 378.607422 195.339844 378.605469 195.337891 378.605469 195.337891 L 378.605469 184.8125 C 365.100905 184.8125 352.521321 180.89364 341.970703 174.173828 C 341.966095 174.167633 341.959717 174.160492 341.955078 174.154297 C 326.798782 164.497599 315.858548 149.042066 312.445313 131.029297 L 312.443359 131.029297 C 311.705659 127.135075 311.302734 123.129635 311.302734 119.03125 L 262.925781 119.03125 L 262.849609 308.505859 C 262.036134 329.723078 244.167169 346.751953 222.261719 346.751953 C 215.455329 346.751953 209.043772 345.09039 203.400391 342.1875 C 203.400391 342.1875 203.400391 342.185547 203.400391 342.185547 C 190.457243 335.529136 181.599609 322.269653 181.599609 307.009766 C 181.599609 285.096564 199.839729 267.267578 222.261719 267.267578 C 226.448253 267.267578 230.463383 267.942048 234.261719 269.103516 L 234.261719 232.039063 C 196.472219 232.901594 164.42557 256.870383 152.402344 290.023438 C 164.423054 256.865655 196.470904 232.891817 234.263672 232.029297 L 234.263672 220.830078 C 230.33231 220.308869 226.339275 219.980469 222.265625 219.980469 C 173.167041 219.980469 133.224609 259.018008 133.224609 307 C 133.224609 336.431001 148.263084 362.478028 171.210938 378.234375 C 171.2202 378.242096 171.226624 378.250046 171.234375 378.257813 C 185.696229 388.182058 203.290089 394.03125 222.261719 394.03125 Z M 261.707031 350.044922 C 262.202907 349.656375 262.689516 349.256111 263.166016 348.845703 C 262.689122 349.256431 262.203331 349.656089 261.707031 350.044922 Z M 265.242188 346.925781 C 272.159574 340.073002 276.555931 330.777844 276.949219 320.5 L 277.027344 131.029297 L 277.029297 131.029297 L 276.951172 320.501953 C 276.557111 330.779551 272.160342 340.073104 265.242188 346.925781 Z M 150.066406 297.537109 C 150.481768 295.943171 150.942998 294.366227 151.447266 292.808594 C 150.94286 294.366029 150.481928 295.94337 150.066406 297.537109 Z M 151.447266 292.806641 C 151.749771 291.8723 152.068663 290.945873 152.402344 290.025391 C 152.068589 290.945754 151.749853 291.87242 151.447266 292.806641 Z"/>
</svg>
