<svg viewBox="0 0 512 512" xmlns="http://www.w3.org/2000/svg">
  <path d="M 256 512 C 114.611343 512 0 397.388672 0 256 C 0 114.611359 114.611343 0 256 0 C 397.388641 0 512 114.611359 512 256 C 512 397.388672 397.388641 512 256 512 Z M 255.572266 368.820313 C 255.572266 368.820313 355.645203 368.820068 380.589844 362.128906 C 394.366455 358.441711 405.193665 347.614502 408.880859 333.837891 C 415.572021 308.892151 415.572266 256.814453 415.572266 256.814453 C 415.572266 256.814453 415.545135 204.738495 408.880859 179.792969 C 405.193665 166.016235 394.366455 155.187866 380.589844 151.5 C 355.645203 144.809235 255.572266 144.810547 255.572266 144.810547 C 255.572266 144.810547 155.50032 144.809235 130.554688 151.5 C 116.778084 155.187866 105.951508 166.016235 102.263672 179.792969 C 95.572876 204.738495 95.572266 256.814453 95.572266 256.814453 C 95.572266 256.814453 95.572876 308.892151 102.263672 333.837891 C 105.951508 347.614502 116.778084 358.441711 130.554688 362.128906 C 155.50032 368.820068 255.572266 368.820313 255.572266 368.820313 Z M 223.542969 304.814453 L 223.542969 208.826172 L 306.675781 256.820313 L 223.542969 304.814453 Z"/>
</svg>
