<?xml version="1.0" encoding="UTF-8" standalone="no"?>
<!DOCTYPE svg PUBLIC "-//W3C//DTD SVG 1.1//EN" "http://www.w3.org/Graphics/SVG/1.1/DTD/svg11.dtd">
<svg version="1.1" xmlns="http://www.w3.org/2000/svg" xmlns:xlink="http://www.w3.org/1999/xlink" preserveAspectRatio="xMidYMid meet" viewBox="0 0 512 512" width="512" height="512"><defs><path d="M512 256C512 397.29 397.29 512 256 512C114.71 512 0 397.29 0 256C0 114.71 114.71 0 256 0C397.29 0 512 114.71 512 256Z" id="a1pUJZdaPr"></path><path d="M257.33 196.36C250.51 196.36 244.97 190.82 244.97 183.99C244.97 177.17 250.51 171.63 257.33 171.63C264.15 171.63 269.69 177.17 269.69 183.99C269.69 190.82 264.15 196.36 257.33 196.36Z" id="d4qORh9KJ7"></path><path d="M388.83 147.09L131.63 404.3L114.14 386.81L371.35 129.61L388.83 147.09Z" id="iRRFazeTd"></path><path d="M274.1 96.17C267.28 96.17 261.74 90.63 261.74 83.8C261.74 76.99 267.28 71.44 274.1 71.44C280.92 71.44 286.47 76.99 286.47 83.8C286.47 90.63 280.92 96.17 274.1 96.17Z" id="a5nXUdzJiO"></path><path d="M436.35 248.98L327.65 357.68L310.17 340.19L418.87 231.49L436.35 248.98Z" id="aRBasYZOn"></path><path d="M149 304.68C142.17 304.68 136.64 299.14 136.64 292.32C136.64 285.5 142.17 279.95 149 279.95C155.82 279.95 161.36 285.5 161.36 292.32C161.36 299.14 155.82 304.68 149 304.68Z" id="a4vLFp8rqV"></path><path d="M318.77 440.56C311.95 440.56 306.41 435.01 306.41 428.2C306.41 421.37 311.95 415.83 318.77 415.83C325.59 415.83 331.13 421.37 331.13 428.2C331.13 435.01 325.59 440.56 318.77 440.56Z" id="ajvTamPmN"></path><path d="M166.32 203.96C159.49 203.96 153.96 198.43 153.96 191.6C153.96 184.78 159.49 179.24 166.32 179.24C173.14 179.24 178.68 184.78 178.68 191.6C178.68 198.43 173.14 203.96 166.32 203.96Z" id="ai073yDlq"></path><path d="M342.01 265.44L233.32 374.13L215.83 356.65L324.53 247.96L342.01 265.44Z" id="a6r7Fs9UCM"></path><path d="M122.22 408.57C115.4 408.57 109.86 403.03 109.86 396.21C109.86 389.39 115.4 383.85 122.22 383.85C129.05 383.85 134.58 389.39 134.58 396.21C134.58 403.03 129.05 408.57 122.22 408.57Z" id="dgfc13XAR"></path><path d="M427.64 331.68C420.81 331.68 415.28 326.14 415.28 319.32C415.28 312.49 420.81 306.95 427.64 306.95C434.46 306.95 440 312.49 440 319.32C440 326.14 434.46 331.68 427.64 331.68Z" id="f5tGQseEKK"></path><path d="M192.93 96.33C186.1 96.33 180.57 90.79 180.57 83.96C180.57 77.14 186.1 71.6 192.93 71.6C199.75 71.6 205.29 77.14 205.29 83.96C205.29 90.79 199.75 96.33 192.93 96.33Z" id="awB5JHKru"></path><path d="M436.63 327.84L327.93 436.54L310.45 419.06L419.14 310.36L436.63 327.84Z" id="a232CPpg50"></path><path d="M379.88 150.92C373.05 150.92 367.51 145.39 367.51 138.56C367.51 131.74 373.05 126.2 379.88 126.2C386.7 126.2 392.24 131.74 392.24 138.56C392.24 145.39 386.7 150.92 379.88 150.92Z" id="bRhyFN9vI"></path><path d="M427.13 253.07C420.31 253.07 414.77 247.53 414.77 240.7C414.77 233.88 420.31 228.34 427.13 228.34C433.95 228.34 439.49 233.88 439.49 240.7C439.49 247.53 433.95 253.07 427.13 253.07Z" id="e22knQGTzp"></path><path d="M84.36 204.85C77.54 204.85 72 199.32 72 192.49C72 185.67 77.54 180.13 84.36 180.13C91.19 180.13 96.72 185.67 96.72 192.49C96.72 199.32 91.19 204.85 84.36 204.85Z" id="ao6OetBVt"></path><path d="M202.13 92.23L93.42 200.92L75.94 183.44L184.64 74.74L202.13 92.23Z" id="h6chxAgqD"></path><path d="M332.91 269.42C326.09 269.42 320.55 263.88 320.55 257.06C320.55 250.24 326.09 244.7 332.91 244.7C339.73 244.7 345.27 250.24 345.27 257.06C345.27 263.88 339.73 269.42 332.91 269.42Z" id="b4TDEh5uST"></path><path d="M318.49 361.64C311.67 361.64 306.13 356.11 306.13 349.28C306.13 342.46 311.67 336.92 318.49 336.92C325.31 336.92 330.85 342.46 330.85 349.28C330.85 356.11 325.31 361.64 318.49 361.64Z" id="c2sYRCvJfl"></path><path d="M266.5 192.31L157.81 301.01L140.32 283.52L249.02 174.83L266.5 192.31Z" id="d1EAschzwY"></path><path d="M283.41 92.01L174.71 200.7L157.23 183.22L265.93 74.52L283.41 92.01Z" id="e2YGsRg8oc"></path><path d="M224.12 378.18C217.31 378.18 211.76 372.64 211.76 365.82C211.76 358.99 217.31 353.45 224.12 353.45C230.95 353.45 236.49 358.99 236.49 365.82C236.49 372.64 230.95 378.18 224.12 378.18Z" id="b3n6Yio2j"></path></defs><g><g><g><use xlink:href="#a1pUJZdaPr" opacity="1" fill="#111216" fill-opacity="1"></use></g><g><g><use xlink:href="#d4qORh9KJ7" opacity="1" fill="#eeeff0" fill-opacity="1"></use><g><use xlink:href="#d4qORh9KJ7" opacity="1" fill-opacity="0" stroke="#000000" stroke-width="1" stroke-opacity="0"></use></g></g><g><use xlink:href="#iRRFazeTd" opacity="1" fill="#eeeff0" fill-opacity="1"></use><g><use xlink:href="#iRRFazeTd" opacity="1" fill-opacity="0" stroke="#000000" stroke-width="1" stroke-opacity="0"></use></g></g><g><use xlink:href="#a5nXUdzJiO" opacity="1" fill="#eeeff0" fill-opacity="1"></use><g><use xlink:href="#a5nXUdzJiO" opacity="1" fill-opacity="0" stroke="#000000" stroke-width="1" stroke-opacity="0"></use></g></g><g><use xlink:href="#aRBasYZOn" opacity="1" fill="#eeeff0" fill-opacity="1"></use><g><use xlink:href="#aRBasYZOn" opacity="1" fill-opacity="0" stroke="#000000" stroke-width="1" stroke-opacity="0"></use></g></g><g><use xlink:href="#a4vLFp8rqV" opacity="1" fill="#eeeff0" fill-opacity="1"></use><g><use xlink:href="#a4vLFp8rqV" opacity="1" fill-opacity="0" stroke="#000000" stroke-width="1" stroke-opacity="0"></use></g></g><g><use xlink:href="#ajvTamPmN" opacity="1" fill="#eeeff0" fill-opacity="1"></use><g><use xlink:href="#ajvTamPmN" opacity="1" fill-opacity="0" stroke="#000000" stroke-width="1" stroke-opacity="0"></use></g></g><g><use xlink:href="#ai073yDlq" opacity="1" fill="#eeeff0" fill-opacity="1"></use><g><use xlink:href="#ai073yDlq" opacity="1" fill-opacity="0" stroke="#000000" stroke-width="1" stroke-opacity="0"></use></g></g><g><use xlink:href="#a6r7Fs9UCM" opacity="1" fill="#eeeff0" fill-opacity="1"></use><g><use xlink:href="#a6r7Fs9UCM" opacity="1" fill-opacity="0" stroke="#000000" stroke-width="1" stroke-opacity="0"></use></g></g><g><use xlink:href="#dgfc13XAR" opacity="1" fill="#eeeff0" fill-opacity="1"></use><g><use xlink:href="#dgfc13XAR" opacity="1" fill-opacity="0" stroke="#000000" stroke-width="1" stroke-opacity="0"></use></g></g><g><use xlink:href="#f5tGQseEKK" opacity="1" fill="#eeeff0" fill-opacity="1"></use><g><use xlink:href="#f5tGQseEKK" opacity="1" fill-opacity="0" stroke="#000000" stroke-width="1" stroke-opacity="0"></use></g></g><g><use xlink:href="#awB5JHKru" opacity="1" fill="#eeeff0" fill-opacity="1"></use><g><use xlink:href="#awB5JHKru" opacity="1" fill-opacity="0" stroke="#000000" stroke-width="1" stroke-opacity="0"></use></g></g><g><use xlink:href="#a232CPpg50" opacity="1" fill="#eeeff0" fill-opacity="1"></use><g><use xlink:href="#a232CPpg50" opacity="1" fill-opacity="0" stroke="#000000" stroke-width="1" stroke-opacity="0"></use></g></g><g><use xlink:href="#bRhyFN9vI" opacity="1" fill="#eeeff0" fill-opacity="1"></use><g><use xlink:href="#bRhyFN9vI" opacity="1" fill-opacity="0" stroke="#000000" stroke-width="1" stroke-opacity="0"></use></g></g><g><use xlink:href="#e22knQGTzp" opacity="1" fill="#eeeff0" fill-opacity="1"></use><g><use xlink:href="#e22knQGTzp" opacity="1" fill-opacity="0" stroke="#000000" stroke-width="1" stroke-opacity="0"></use></g></g><g><use xlink:href="#ao6OetBVt" opacity="1" fill="#eeeff0" fill-opacity="1"></use><g><use xlink:href="#ao6OetBVt" opacity="1" fill-opacity="0" stroke="#000000" stroke-width="1" stroke-opacity="0"></use></g></g><g><use xlink:href="#h6chxAgqD" opacity="1" fill="#eeeff0" fill-opacity="1"></use><g><use xlink:href="#h6chxAgqD" opacity="1" fill-opacity="0" stroke="#000000" stroke-width="1" stroke-opacity="0"></use></g></g><g><use xlink:href="#b4TDEh5uST" opacity="1" fill="#eeeff0" fill-opacity="1"></use><g><use xlink:href="#b4TDEh5uST" opacity="1" fill-opacity="0" stroke="#000000" stroke-width="1" stroke-opacity="0"></use></g></g><g><use xlink:href="#c2sYRCvJfl" opacity="1" fill="#eeeff0" fill-opacity="1"></use><g><use xlink:href="#c2sYRCvJfl" opacity="1" fill-opacity="0" stroke="#000000" stroke-width="1" stroke-opacity="0"></use></g></g><g><use xlink:href="#d1EAschzwY" opacity="1" fill="#eeeff0" fill-opacity="1"></use><g><use xlink:href="#d1EAschzwY" opacity="1" fill-opacity="0" stroke="#000000" stroke-width="1" stroke-opacity="0"></use></g></g><g><use xlink:href="#e2YGsRg8oc" opacity="1" fill="#eeeff0" fill-opacity="1"></use><g><use xlink:href="#e2YGsRg8oc" opacity="1" fill-opacity="0" stroke="#000000" stroke-width="1" stroke-opacity="0"></use></g></g><g><use xlink:href="#b3n6Yio2j" opacity="1" fill="#eeeff0" fill-opacity="1"></use><g><use xlink:href="#b3n6Yio2j" opacity="1" fill-opacity="0" stroke="#000000" stroke-width="1" stroke-opacity="0"></use></g></g></g></g></g></svg>