<?xml version="1.0" encoding="UTF-8" standalone="no"?>
<!DOCTYPE svg PUBLIC "-//W3C//DTD SVG 1.1//EN" "http://www.w3.org/Graphics/SVG/1.1/DTD/svg11.dtd">
<svg version="1.1" xmlns="http://www.w3.org/2000/svg" xmlns:xlink="http://www.w3.org/1999/xlink" preserveAspectRatio="xMidYMid meet" viewBox="0 0 512 512" width="512" height="512"><defs><path d="M257.79 175.61C248.6 175.61 241.13 168.14 241.13 158.95C241.13 149.75 248.6 142.28 257.79 142.28C266.99 142.28 274.45 149.75 274.45 158.95C274.45 168.14 266.99 175.61 257.79 175.61Z" id="b3dPv6Rp0h"></path><path d="M435.04 109.21L88.37 455.88L64.8 432.32L411.47 85.65L435.04 109.21Z" id="c1qtVFlFYA"></path><path d="M280.4 40.57C271.2 40.57 263.74 33.11 263.74 23.91C263.74 14.72 271.2 7.25 280.4 7.25C289.59 7.25 297.06 14.72 297.06 23.91C297.06 33.11 289.59 40.57 280.4 40.57Z" id="g15XWJe9xY"></path><path d="M499.08 246.54L352.57 393.04L329.01 369.47L475.52 222.97L499.08 246.54Z" id="a2AMmYam2y"></path><path d="M111.78 321.61C102.58 321.61 95.12 314.15 95.12 304.95C95.12 295.76 102.58 288.29 111.78 288.29C120.97 288.29 128.44 295.76 128.44 304.95C128.44 314.15 120.97 321.61 111.78 321.61Z" id="b1VFenAGa9"></path><path d="M340.6 504.75C331.4 504.75 323.94 497.28 323.94 488.09C323.94 478.89 331.4 471.43 340.6 471.43C349.8 471.43 357.26 478.89 357.26 488.09C357.26 497.28 349.8 504.75 340.6 504.75Z" id="c1jZtA9RWk"></path><path d="M135.12 185.86C125.93 185.86 118.46 178.4 118.46 169.2C118.46 160.01 125.93 152.54 135.12 152.54C144.32 152.54 151.79 160.01 151.79 169.2C151.79 178.4 144.32 185.86 135.12 185.86Z" id="lqsN0rGZ"></path><path d="M371.93 268.72L225.42 415.22L201.86 391.66L348.37 245.16L371.93 268.72Z" id="c2I8zhaoo"></path><path d="M75.69 461.64C66.5 461.64 59.03 454.18 59.03 444.98C59.03 435.78 66.5 428.32 75.69 428.32C84.89 428.32 92.35 435.78 92.35 444.98C92.35 454.18 84.89 461.64 75.69 461.64Z" id="bdCqy47wK"></path><path d="M487.34 358C478.14 358 470.68 350.54 470.68 341.34C470.68 332.14 478.14 324.68 487.34 324.68C496.54 324.68 504 332.14 504 341.34C504 350.54 496.54 358 487.34 358Z" id="k15dlbA30"></path><path d="M170.99 40.79C161.79 40.79 154.33 33.32 154.33 24.12C154.33 14.93 161.79 7.46 170.99 7.46C180.19 7.46 187.65 14.93 187.65 24.12C187.65 33.32 180.19 40.79 170.99 40.79Z" id="a1UD2sFWvp"></path><path d="M499.45 352.83L352.95 499.33L329.39 475.77L475.89 329.27L499.45 352.83Z" id="a14atmH6M0"></path><path d="M422.96 114.38C413.77 114.38 406.3 106.91 406.3 97.71C406.3 88.52 413.77 81.05 422.96 81.05C432.16 81.05 439.63 88.52 439.63 97.71C439.63 106.91 432.16 114.38 422.96 114.38Z" id="fQyL09E8B"></path><path d="M486.65 252.05C477.47 252.05 469.99 244.58 469.99 235.38C469.99 226.19 477.47 218.72 486.65 218.72C495.85 218.72 503.32 226.19 503.32 235.38C503.32 244.58 495.85 252.05 486.65 252.05Z" id="bbpSUUGQc"></path><path d="M24.66 187.06C15.46 187.06 8 179.6 8 170.4C8 161.2 15.46 153.74 24.66 153.74C33.86 153.74 41.32 161.2 41.32 170.4C41.32 179.6 33.86 187.06 24.66 187.06Z" id="aQ13O9KQZ"></path><path d="M183.39 35.26L36.88 181.77L13.32 158.2L159.82 11.69L183.39 35.26Z" id="dPUoFHrLk"></path><path d="M359.66 274.09C350.47 274.09 343 266.63 343 257.43C343 248.23 350.47 240.77 359.66 240.77C368.85 240.77 376.33 248.23 376.33 257.43C376.33 266.63 368.85 274.09 359.66 274.09Z" id="aGwbj8Ocy"></path><path d="M340.23 398.39C331.03 398.39 323.57 390.93 323.57 381.73C323.57 372.53 331.03 365.07 340.23 365.07C349.42 365.07 356.89 372.53 356.89 381.73C356.89 390.93 349.42 398.39 340.23 398.39Z" id="dwoprCiY"></path><path d="M270.15 170.16L123.65 316.66L100.08 293.09L246.59 146.59L270.15 170.16Z" id="l2UCk8V37q"></path><path d="M292.94 34.96L146.44 181.47L122.88 157.91L269.38 11.4L292.94 34.96Z" id="eMnHvU57a"></path><path d="M213.04 420.68C203.85 420.68 196.37 413.21 196.37 404.01C196.37 394.82 203.85 387.35 213.04 387.35C222.23 387.35 229.7 394.82 229.7 404.01C229.7 413.21 222.23 420.68 213.04 420.68Z" id="bgCBxOQbX"></path></defs><g><g><g><g><use xlink:href="#b3dPv6Rp0h" opacity="1" fill="#eeeff0" fill-opacity="1"></use><g><use xlink:href="#b3dPv6Rp0h" opacity="1" fill-opacity="0" stroke="#000000" stroke-width="1" stroke-opacity="0"></use></g></g><g><use xlink:href="#c1qtVFlFYA" opacity="1" fill="#eeeff0" fill-opacity="1"></use><g><use xlink:href="#c1qtVFlFYA" opacity="1" fill-opacity="0" stroke="#000000" stroke-width="1" stroke-opacity="0"></use></g></g><g><use xlink:href="#g15XWJe9xY" opacity="1" fill="#eeeff0" fill-opacity="1"></use><g><use xlink:href="#g15XWJe9xY" opacity="1" fill-opacity="0" stroke="#000000" stroke-width="1" stroke-opacity="0"></use></g></g><g><use xlink:href="#a2AMmYam2y" opacity="1" fill="#eeeff0" fill-opacity="1"></use><g><use xlink:href="#a2AMmYam2y" opacity="1" fill-opacity="0" stroke="#000000" stroke-width="1" stroke-opacity="0"></use></g></g><g><use xlink:href="#b1VFenAGa9" opacity="1" fill="#eeeff0" fill-opacity="1"></use><g><use xlink:href="#b1VFenAGa9" opacity="1" fill-opacity="0" stroke="#000000" stroke-width="1" stroke-opacity="0"></use></g></g><g><use xlink:href="#c1jZtA9RWk" opacity="1" fill="#eeeff0" fill-opacity="1"></use><g><use xlink:href="#c1jZtA9RWk" opacity="1" fill-opacity="0" stroke="#000000" stroke-width="1" stroke-opacity="0"></use></g></g><g><use xlink:href="#lqsN0rGZ" opacity="1" fill="#eeeff0" fill-opacity="1"></use><g><use xlink:href="#lqsN0rGZ" opacity="1" fill-opacity="0" stroke="#000000" stroke-width="1" stroke-opacity="0"></use></g></g><g><use xlink:href="#c2I8zhaoo" opacity="1" fill="#eeeff0" fill-opacity="1"></use><g><use xlink:href="#c2I8zhaoo" opacity="1" fill-opacity="0" stroke="#000000" stroke-width="1" stroke-opacity="0"></use></g></g><g><use xlink:href="#bdCqy47wK" opacity="1" fill="#eeeff0" fill-opacity="1"></use><g><use xlink:href="#bdCqy47wK" opacity="1" fill-opacity="0" stroke="#000000" stroke-width="1" stroke-opacity="0"></use></g></g><g><use xlink:href="#k15dlbA30" opacity="1" fill="#eeeff0" fill-opacity="1"></use><g><use xlink:href="#k15dlbA30" opacity="1" fill-opacity="0" stroke="#000000" stroke-width="1" stroke-opacity="0"></use></g></g><g><use xlink:href="#a1UD2sFWvp" opacity="1" fill="#eeeff0" fill-opacity="1"></use><g><use xlink:href="#a1UD2sFWvp" opacity="1" fill-opacity="0" stroke="#000000" stroke-width="1" stroke-opacity="0"></use></g></g><g><use xlink:href="#a14atmH6M0" opacity="1" fill="#eeeff0" fill-opacity="1"></use><g><use xlink:href="#a14atmH6M0" opacity="1" fill-opacity="0" stroke="#000000" stroke-width="1" stroke-opacity="0"></use></g></g><g><use xlink:href="#fQyL09E8B" opacity="1" fill="#eeeff0" fill-opacity="1"></use><g><use xlink:href="#fQyL09E8B" opacity="1" fill-opacity="0" stroke="#000000" stroke-width="1" stroke-opacity="0"></use></g></g><g><use xlink:href="#bbpSUUGQc" opacity="1" fill="#eeeff0" fill-opacity="1"></use><g><use xlink:href="#bbpSUUGQc" opacity="1" fill-opacity="0" stroke="#000000" stroke-width="1" stroke-opacity="0"></use></g></g><g><use xlink:href="#aQ13O9KQZ" opacity="1" fill="#eeeff0" fill-opacity="1"></use><g><use xlink:href="#aQ13O9KQZ" opacity="1" fill-opacity="0" stroke="#000000" stroke-width="1" stroke-opacity="0"></use></g></g><g><use xlink:href="#dPUoFHrLk" opacity="1" fill="#eeeff0" fill-opacity="1"></use><g><use xlink:href="#dPUoFHrLk" opacity="1" fill-opacity="0" stroke="#000000" stroke-width="1" stroke-opacity="0"></use></g></g><g><use xlink:href="#aGwbj8Ocy" opacity="1" fill="#eeeff0" fill-opacity="1"></use><g><use xlink:href="#aGwbj8Ocy" opacity="1" fill-opacity="0" stroke="#000000" stroke-width="1" stroke-opacity="0"></use></g></g><g><use xlink:href="#dwoprCiY" opacity="1" fill="#eeeff0" fill-opacity="1"></use><g><use xlink:href="#dwoprCiY" opacity="1" fill-opacity="0" stroke="#000000" stroke-width="1" stroke-opacity="0"></use></g></g><g><use xlink:href="#l2UCk8V37q" opacity="1" fill="#eeeff0" fill-opacity="1"></use><g><use xlink:href="#l2UCk8V37q" opacity="1" fill-opacity="0" stroke="#000000" stroke-width="1" stroke-opacity="0"></use></g></g><g><use xlink:href="#eMnHvU57a" opacity="1" fill="#eeeff0" fill-opacity="1"></use><g><use xlink:href="#eMnHvU57a" opacity="1" fill-opacity="0" stroke="#000000" stroke-width="1" stroke-opacity="0"></use></g></g><g><use xlink:href="#bgCBxOQbX" opacity="1" fill="#eeeff0" fill-opacity="1"></use><g><use xlink:href="#bgCBxOQbX" opacity="1" fill-opacity="0" stroke="#000000" stroke-width="1" stroke-opacity="0"></use></g></g></g></g></g></svg>