<?xml version="1.0" encoding="UTF-8" standalone="no"?>
<svg
   version="1.1"
   preserveAspectRatio="xMidYMid meet"
   viewBox="0 0 512 512"
   width="512"
   height="512"
   id="svg1026"
   sodipodi:docname="white-circle.svg"
   inkscape:export-filename="/Users/james/Desktop/sam.png"
   inkscape:export-xdpi="96"
   inkscape:export-ydpi="96"
   inkscape:version="1.1.2 (b8e25be8, 2022-02-05)"
   xmlns:inkscape="http://www.inkscape.org/namespaces/inkscape"
   xmlns:sodipodi="http://sodipodi.sourceforge.net/DTD/sodipodi-0.dtd"
   xmlns:xlink="http://www.w3.org/1999/xlink"
   xmlns="http://www.w3.org/2000/svg"
   xmlns:svg="http://www.w3.org/2000/svg">
  <sodipodi:namedview
     id="namedview1028"
     pagecolor="#ffffff"
     bordercolor="#666666"
     borderopacity="1.0"
     inkscape:pageshadow="2"
     inkscape:pageopacity="0.0"
     inkscape:pagecheckerboard="0"
     showgrid="false"
     inkscape:zoom="1.4042969"
     inkscape:cx="54.831711"
     inkscape:cy="264.5452"
     inkscape:window-width="1364"
     inkscape:window-height="969"
     inkscape:window-x="0"
     inkscape:window-y="25"
     inkscape:window-maximized="0"
     inkscape:current-layer="svg1026" />
  <defs
     id="defs846">
    <path
       d="M512 256C512 397.29 397.29 512 256 512C114.71 512 0 397.29 0 256C0 114.71 114.71 0 256 0C397.29 0 512 114.71 512 256Z"
       id="bMKFO7K9W" />
    <path
       d="M257.33 196.36C250.51 196.36 244.97 190.82 244.97 183.99C244.97 177.17 250.51 171.63 257.33 171.63C264.15 171.63 269.69 177.17 269.69 183.99C269.69 190.82 264.15 196.36 257.33 196.36Z"
       id="a3a96VXF9n" />
    <path
       d="M388.83 147.09L131.63 404.3L114.14 386.81L371.35 129.61L388.83 147.09Z"
       id="evPuT8B0X" />
    <path
       d="M274.1 96.17C267.28 96.17 261.74 90.63 261.74 83.8C261.74 76.99 267.28 71.44 274.1 71.44C280.92 71.44 286.47 76.99 286.47 83.8C286.47 90.63 280.92 96.17 274.1 96.17Z"
       id="c15nT9CkvV" />
    <path
       d="M436.35 248.98L327.65 357.68L310.17 340.19L418.87 231.49L436.35 248.98Z"
       id="a2XDIiwb2t" />
    <path
       d="M149 304.68C142.17 304.68 136.64 299.14 136.64 292.32C136.64 285.5 142.17 279.95 149 279.95C155.82 279.95 161.36 285.5 161.36 292.32C161.36 299.14 155.82 304.68 149 304.68Z"
       id="cBo3gGdnH" />
    <path
       d="M318.77 440.56C311.95 440.56 306.41 435.01 306.41 428.2C306.41 421.37 311.95 415.83 318.77 415.83C325.59 415.83 331.13 421.37 331.13 428.2C331.13 435.01 325.59 440.56 318.77 440.56Z"
       id="c640PpcNZJ" />
    <path
       d="M166.32 203.96C159.49 203.96 153.96 198.43 153.96 191.6C153.96 184.78 159.49 179.24 166.32 179.24C173.14 179.24 178.68 184.78 178.68 191.6C178.68 198.43 173.14 203.96 166.32 203.96Z"
       id="duCIIEbi4" />
    <path
       d="M342.01 265.44L233.32 374.13L215.83 356.65L324.53 247.96L342.01 265.44Z"
       id="fjRkQu12V" />
    <path
       d="M122.22 408.57C115.4 408.57 109.86 403.03 109.86 396.21C109.86 389.39 115.4 383.85 122.22 383.85C129.05 383.85 134.58 389.39 134.58 396.21C134.58 403.03 129.05 408.57 122.22 408.57Z"
       id="avFGvzMBe" />
    <path
       d="M427.64 331.68C420.81 331.68 415.28 326.14 415.28 319.32C415.28 312.49 420.81 306.95 427.64 306.95C434.46 306.95 440 312.49 440 319.32C440 326.14 434.46 331.68 427.64 331.68Z"
       id="cxOl8R1xO" />
    <path
       d="M192.93 96.33C186.1 96.33 180.57 90.79 180.57 83.96C180.57 77.14 186.1 71.6 192.93 71.6C199.75 71.6 205.29 77.14 205.29 83.96C205.29 90.79 199.75 96.33 192.93 96.33Z"
       id="a3YFwWMgzv" />
    <path
       d="M436.63 327.84L327.93 436.54L310.45 419.06L419.14 310.36L436.63 327.84Z"
       id="a29i2Py5N" />
    <path
       d="M379.88 150.92C373.05 150.92 367.51 145.39 367.51 138.56C367.51 131.74 373.05 126.2 379.88 126.2C386.7 126.2 392.24 131.74 392.24 138.56C392.24 145.39 386.7 150.92 379.88 150.92Z"
       id="bzHKXiD41" />
    <path
       d="M427.13 253.07C420.31 253.07 414.77 247.53 414.77 240.7C414.77 233.88 420.31 228.34 427.13 228.34C433.95 228.34 439.49 233.88 439.49 240.7C439.49 247.53 433.95 253.07 427.13 253.07Z"
       id="h4mljEnlDL" />
    <path
       d="M84.36 204.85C77.54 204.85 72 199.32 72 192.49C72 185.67 77.54 180.13 84.36 180.13C91.19 180.13 96.72 185.67 96.72 192.49C96.72 199.32 91.19 204.85 84.36 204.85Z"
       id="bqIVfsok1" />
    <path
       d="M202.13 92.23L93.42 200.92L75.94 183.44L184.64 74.74L202.13 92.23Z"
       id="b2McLt1rTK" />
    <path
       d="M332.91 269.42C326.09 269.42 320.55 263.88 320.55 257.06C320.55 250.24 326.09 244.7 332.91 244.7C339.73 244.7 345.27 250.24 345.27 257.06C345.27 263.88 339.73 269.42 332.91 269.42Z"
       id="aBX0aYjdy" />
    <path
       d="M318.49 361.64C311.67 361.64 306.13 356.11 306.13 349.28C306.13 342.46 311.67 336.92 318.49 336.92C325.31 336.92 330.85 342.46 330.85 349.28C330.85 356.11 325.31 361.64 318.49 361.64Z"
       id="e3oQfYDEcY" />
    <path
       d="M266.5 192.31L157.81 301.01L140.32 283.52L249.02 174.83L266.5 192.31Z"
       id="af5vUaPNp" />
    <path
       d="M283.41 92.01L174.71 200.7L157.23 183.22L265.93 74.52L283.41 92.01Z"
       id="c7VAexnW8" />
    <path
       d="M224.12 378.18C217.31 378.18 211.76 372.64 211.76 365.82C211.76 358.99 217.31 353.45 224.12 353.45C230.95 353.45 236.49 358.99 236.49 365.82C236.49 372.64 230.95 378.18 224.12 378.18Z"
       id="c2lWFtXZT8" />
  </defs>
  <g
     id="g1024">
    <g
       id="g1022">
      <g
         id="g850">
        <use
           xlink:href="#bMKFO7K9W"
           opacity="1"
           fill="#eeeff0"
           fill-opacity="1"
           id="use848" />
      </g>
      <g
         id="g1020">
        <g
           id="g858">
          <use
             xlink:href="#a3a96VXF9n"
             opacity="1"
             fill="#111216"
             fill-opacity="1"
             id="use852" />
          <g
             id="g856">
            <use
               xlink:href="#a3a96VXF9n"
               opacity="1"
               fill-opacity="0"
               stroke="#000000"
               stroke-width="1"
               stroke-opacity="0"
               id="use854" />
          </g>
        </g>
        <g
           id="g866">
          <use
             xlink:href="#evPuT8B0X"
             opacity="1"
             fill="#111216"
             fill-opacity="1"
             id="use860" />
          <g
             id="g864">
            <use
               xlink:href="#evPuT8B0X"
               opacity="1"
               fill-opacity="0"
               stroke="#000000"
               stroke-width="1"
               stroke-opacity="0"
               id="use862" />
          </g>
        </g>
        <g
           id="g874">
          <use
             xlink:href="#c15nT9CkvV"
             opacity="1"
             fill="#111216"
             fill-opacity="1"
             id="use868" />
          <g
             id="g872">
            <use
               xlink:href="#c15nT9CkvV"
               opacity="1"
               fill-opacity="0"
               stroke="#000000"
               stroke-width="1"
               stroke-opacity="0"
               id="use870" />
          </g>
        </g>
        <g
           id="g882">
          <use
             xlink:href="#a2XDIiwb2t"
             opacity="1"
             fill="#111216"
             fill-opacity="1"
             id="use876" />
          <g
             id="g880">
            <use
               xlink:href="#a2XDIiwb2t"
               opacity="1"
               fill-opacity="0"
               stroke="#000000"
               stroke-width="1"
               stroke-opacity="0"
               id="use878" />
          </g>
        </g>
        <g
           id="g890">
          <use
             xlink:href="#cBo3gGdnH"
             opacity="1"
             fill="#111216"
             fill-opacity="1"
             id="use884" />
          <g
             id="g888">
            <use
               xlink:href="#cBo3gGdnH"
               opacity="1"
               fill-opacity="0"
               stroke="#000000"
               stroke-width="1"
               stroke-opacity="0"
               id="use886" />
          </g>
        </g>
        <g
           id="g898">
          <use
             xlink:href="#c640PpcNZJ"
             opacity="1"
             fill="#111216"
             fill-opacity="1"
             id="use892" />
          <g
             id="g896">
            <use
               xlink:href="#c640PpcNZJ"
               opacity="1"
               fill-opacity="0"
               stroke="#000000"
               stroke-width="1"
               stroke-opacity="0"
               id="use894" />
          </g>
        </g>
        <g
           id="g906">
          <use
             xlink:href="#duCIIEbi4"
             opacity="1"
             fill="#111216"
             fill-opacity="1"
             id="use900" />
          <g
             id="g904">
            <use
               xlink:href="#duCIIEbi4"
               opacity="1"
               fill-opacity="0"
               stroke="#000000"
               stroke-width="1"
               stroke-opacity="0"
               id="use902" />
          </g>
        </g>
        <g
           id="g914">
          <use
             xlink:href="#fjRkQu12V"
             opacity="1"
             fill="#111216"
             fill-opacity="1"
             id="use908" />
          <g
             id="g912">
            <use
               xlink:href="#fjRkQu12V"
               opacity="1"
               fill-opacity="0"
               stroke="#000000"
               stroke-width="1"
               stroke-opacity="0"
               id="use910" />
          </g>
        </g>
        <g
           id="g922">
          <use
             xlink:href="#avFGvzMBe"
             opacity="1"
             fill="#111216"
             fill-opacity="1"
             id="use916" />
          <g
             id="g920">
            <use
               xlink:href="#avFGvzMBe"
               opacity="1"
               fill-opacity="0"
               stroke="#000000"
               stroke-width="1"
               stroke-opacity="0"
               id="use918" />
          </g>
        </g>
        <g
           id="g930">
          <use
             xlink:href="#cxOl8R1xO"
             opacity="1"
             fill="#111216"
             fill-opacity="1"
             id="use924" />
          <g
             id="g928">
            <use
               xlink:href="#cxOl8R1xO"
               opacity="1"
               fill-opacity="0"
               stroke="#000000"
               stroke-width="1"
               stroke-opacity="0"
               id="use926" />
          </g>
        </g>
        <g
           id="g938">
          <use
             xlink:href="#a3YFwWMgzv"
             opacity="1"
             fill="#111216"
             fill-opacity="1"
             id="use932" />
          <g
             id="g936">
            <use
               xlink:href="#a3YFwWMgzv"
               opacity="1"
               fill-opacity="0"
               stroke="#000000"
               stroke-width="1"
               stroke-opacity="0"
               id="use934" />
          </g>
        </g>
        <g
           id="g946">
          <use
             xlink:href="#a29i2Py5N"
             opacity="1"
             fill="#111216"
             fill-opacity="1"
             id="use940" />
          <g
             id="g944">
            <use
               xlink:href="#a29i2Py5N"
               opacity="1"
               fill-opacity="0"
               stroke="#000000"
               stroke-width="1"
               stroke-opacity="0"
               id="use942" />
          </g>
        </g>
        <g
           id="g954">
          <use
             xlink:href="#bzHKXiD41"
             opacity="1"
             fill="#111216"
             fill-opacity="1"
             id="use948" />
          <g
             id="g952">
            <use
               xlink:href="#bzHKXiD41"
               opacity="1"
               fill-opacity="0"
               stroke="#000000"
               stroke-width="1"
               stroke-opacity="0"
               id="use950" />
          </g>
        </g>
        <g
           id="g962">
          <use
             xlink:href="#h4mljEnlDL"
             opacity="1"
             fill="#111216"
             fill-opacity="1"
             id="use956" />
          <g
             id="g960">
            <use
               xlink:href="#h4mljEnlDL"
               opacity="1"
               fill-opacity="0"
               stroke="#000000"
               stroke-width="1"
               stroke-opacity="0"
               id="use958" />
          </g>
        </g>
        <g
           id="g970">
          <use
             xlink:href="#bqIVfsok1"
             opacity="1"
             fill="#111216"
             fill-opacity="1"
             id="use964" />
          <g
             id="g968">
            <use
               xlink:href="#bqIVfsok1"
               opacity="1"
               fill-opacity="0"
               stroke="#000000"
               stroke-width="1"
               stroke-opacity="0"
               id="use966" />
          </g>
        </g>
        <g
           id="g978">
          <use
             xlink:href="#b2McLt1rTK"
             opacity="1"
             fill="#111216"
             fill-opacity="1"
             id="use972" />
          <g
             id="g976">
            <use
               xlink:href="#b2McLt1rTK"
               opacity="1"
               fill-opacity="0"
               stroke="#000000"
               stroke-width="1"
               stroke-opacity="0"
               id="use974" />
          </g>
        </g>
        <g
           id="g986">
          <use
             xlink:href="#aBX0aYjdy"
             opacity="1"
             fill="#111216"
             fill-opacity="1"
             id="use980" />
          <g
             id="g984">
            <use
               xlink:href="#aBX0aYjdy"
               opacity="1"
               fill-opacity="0"
               stroke="#000000"
               stroke-width="1"
               stroke-opacity="0"
               id="use982" />
          </g>
        </g>
        <g
           id="g994">
          <use
             xlink:href="#e3oQfYDEcY"
             opacity="1"
             fill="#111216"
             fill-opacity="1"
             id="use988" />
          <g
             id="g992">
            <use
               xlink:href="#e3oQfYDEcY"
               opacity="1"
               fill-opacity="0"
               stroke="#000000"
               stroke-width="1"
               stroke-opacity="0"
               id="use990" />
          </g>
        </g>
        <g
           id="g1002">
          <use
             xlink:href="#af5vUaPNp"
             opacity="1"
             fill="#111216"
             fill-opacity="1"
             id="use996" />
          <g
             id="g1000">
            <use
               xlink:href="#af5vUaPNp"
               opacity="1"
               fill-opacity="0"
               stroke="#000000"
               stroke-width="1"
               stroke-opacity="0"
               id="use998" />
          </g>
        </g>
        <g
           id="g1010">
          <use
             xlink:href="#c7VAexnW8"
             opacity="1"
             fill="#111216"
             fill-opacity="1"
             id="use1004" />
          <g
             id="g1008">
            <use
               xlink:href="#c7VAexnW8"
               opacity="1"
               fill-opacity="0"
               stroke="#000000"
               stroke-width="1"
               stroke-opacity="0"
               id="use1006" />
          </g>
        </g>
        <g
           id="g1018">
          <use
             xlink:href="#c2lWFtXZT8"
             opacity="1"
             fill="#111216"
             fill-opacity="1"
             id="use1012" />
          <g
             id="g1016">
            <use
               xlink:href="#c2lWFtXZT8"
               opacity="1"
               fill-opacity="0"
               stroke="#000000"
               stroke-width="1"
               stroke-opacity="0"
               id="use1014" />
          </g>
        </g>
      </g>
    </g>
  </g>
</svg>
